<?xml version="1.0" encoding="utf-8"?>
<!-- Generator: Adobe Illustrator 16.0.0, SVG Export Plug-In . SVG Version: 6.00 Build 0)  -->
<!DOCTYPE svg PUBLIC "-//W3C//DTD SVG 1.1//EN" "http://www.w3.org/Graphics/SVG/1.1/DTD/svg11.dtd">
<svg version="1.1" id="Circles" xmlns="http://www.w3.org/2000/svg" xmlns:xlink="http://www.w3.org/1999/xlink" x="0px" y="0px"
	 width="100%" height="100%" viewBox="0 0 400 400" enable-background="new 0 0 400 400" xml:space="preserve">
<g id="Outter_Circle">
	
		<circle fill="none" stroke="#000000" stroke-width="12" stroke-miterlimit="10" stroke-dasharray="0.5,2" cx="200" cy="200" r="175"/>
</g>
<g id="Middle_Circle">
	<path fill="none" stroke="#000000" stroke-width="2" stroke-miterlimit="10" d="M262.004,336.589
		c-14.614,6.626-30.248,10.903-46.279,12.606c-26.581,2.827-54.25-1.416-80.157-13.739"/>
	<path fill="none" stroke="#000000" stroke-width="2" stroke-miterlimit="10" d="M335.457,264.432"/>
	<path fill="none" stroke="#000000" stroke-width="2" stroke-miterlimit="10" d="M264.432,64.542"/>
	<path fill="none" stroke="#000000" stroke-width="2" stroke-miterlimit="10" d="M64.544,135.567"/>
</g>
<g id="Middle_Circle_copy">
	<circle fill="none" cx="199.999" cy="200" r="149.999"/>
	<text transform="matrix(-0.7181 -0.6959 0.6959 -0.7181 106.3608 307.3164)"><tspan x="0" y="0" font-family="'OCRAExtended'" font-size="24">H</tspan><tspan x="13.741" y="-0.036" font-family="'OCRAExtended'" font-size="24" rotate="5.513">a</tspan><tspan x="27.463" y="1.255" font-family="'OCRAExtended'" font-size="24" rotate="10.963">c</tspan><tspan x="40.967" y="3.833" font-family="'OCRAExtended'" font-size="24" rotate="16.46">k</tspan><tspan x="54.172" y="7.696" font-family="'OCRAExtended'" font-size="24" rotate="22.021">i</tspan><tspan x="66.947" y="12.823" font-family="'OCRAExtended'" font-size="24" rotate="27.607">n</tspan><tspan x="79.13" y="19.153" font-family="'OCRAExtended'" font-size="24" rotate="33.174">g</tspan><tspan x="90.671" y="26.657" font-family="'OCRAExtended'" font-size="24" rotate="38.734"> </tspan><tspan x="101.42" y="35.232" font-family="'OCRAExtended'" font-size="24" rotate="44.264">-</tspan><tspan x="111.301" y="44.814" font-family="'OCRAExtended'" font-size="24" rotate="49.778"> </tspan><tspan x="120.204" y="55.287" font-family="'OCRAExtended'" font-size="24" rotate="55.277">P</tspan><tspan x="128.083" y="66.592" font-family="'OCRAExtended'" font-size="24" rotate="60.791">r</tspan><tspan x="134.826" y="78.579" font-family="'OCRAExtended'" font-size="24" rotate="66.31">o</tspan><tspan x="140.385" y="91.16" font-family="'OCRAExtended'" font-size="24" rotate="71.854">g</tspan><tspan x="144.705" y="104.222" font-family="'OCRAExtended'" font-size="24" rotate="77.423">r</tspan><tspan x="147.733" y="117.629" font-family="'OCRAExtended'" font-size="24" rotate="83">a</tspan><tspan x="149.444" y="131.264" font-family="'OCRAExtended'" font-size="24" rotate="88.57">m</tspan><tspan x="149.822" y="145.021" font-family="'OCRAExtended'" font-size="24" rotate="94.108">m</tspan><tspan x="148.905" y="158.733" font-family="'OCRAExtended'" font-size="24" rotate="99.818">i</tspan><tspan x="146.617" y="172.338" font-family="'OCRAExtended'" font-size="24" rotate="105.05">n</tspan><tspan x="143.079" y="185.636" font-family="'OCRAExtended'" font-size="24" rotate="110.599">g</tspan><tspan x="138.273" y="198.523" font-family="'OCRAExtended'" font-size="24" rotate="116.177"> </tspan><tspan x="132.247" y="210.867" font-family="'OCRAExtended'" font-size="24" rotate="121.749">-</tspan><tspan x="125.035" y="222.587" font-family="'OCRAExtended'" font-size="24" rotate="127.314"> </tspan><tspan x="116.737" y="233.534" font-family="'OCRAExtended'" font-size="24" rotate="132.845">G</tspan><tspan x="107.397" y="243.656" font-family="'OCRAExtended'" font-size="24" rotate="138.368">a</tspan><tspan x="97.144" y="252.816" font-family="'OCRAExtended'" font-size="24" rotate="143.867">m</tspan><tspan x="86.039" y="260.968" font-family="'OCRAExtended'" font-size="24" rotate="149.378">i</tspan><tspan x="74.231" y="267.999" font-family="'OCRAExtended'" font-size="24" rotate="154.89">n</tspan><tspan x="61.783" y="273.873" font-family="'OCRAExtended'" font-size="24" rotate="160.431">g</tspan><tspan x="48.829" y="278.516" font-family="'OCRAExtended'" font-size="24" rotate="165.996"> </tspan><tspan x="35.511" y="281.876" font-family="'OCRAExtended'" font-size="24" rotate="171.568">-</tspan><tspan x="21.914" y="283.928" font-family="'OCRAExtended'" font-size="24" rotate="177.146"> </tspan><tspan x="8.174" y="284.65" font-family="'OCRAExtended'" font-size="24" rotate="-177.304">T</tspan><tspan x="-5.598" y="284.003" font-family="'OCRAExtended'" font-size="24" rotate="-172.039">w</tspan><tspan x="-19.212" y="282.111" font-family="'OCRAExtended'" font-size="24" rotate="-166.365">e</tspan><tspan x="-32.598" y="278.901" font-family="'OCRAExtended'" font-size="24" rotate="-160.827">a</tspan><tspan x="-45.593" y="274.422" font-family="'OCRAExtended'" font-size="24" rotate="-155.256">k</tspan><tspan x="-58.089" y="268.704" font-family="'OCRAExtended'" font-size="24" rotate="-149.68">i</tspan><tspan x="-69.984" y="261.788" font-family="'OCRAExtended'" font-size="24" rotate="-144.11">n</tspan><tspan x="-81.148" y="253.753" font-family="'OCRAExtended'" font-size="24" rotate="-138.566">g</tspan><tspan x="-91.484" y="244.678" font-family="'OCRAExtended'" font-size="24" rotate="-133.045"> </tspan><tspan x="-100.897" y="234.651" font-family="'OCRAExtended'" font-size="24" rotate="-127.541">-</tspan><tspan x="-109.317" y="223.751" font-family="'OCRAExtended'" font-size="24" rotate="-122.033"> </tspan><tspan x="-116.646" y="212.102" font-family="'OCRAExtended'" font-size="24" rotate="-116.518">M</tspan><tspan x="-122.818" y="199.816" font-family="'OCRAExtended'" font-size="24" rotate="-110.989">o</tspan><tspan x="-127.773" y="187.005" font-family="'OCRAExtended'" font-size="24" rotate="-105.439">d</tspan><tspan x="-131.472" y="173.752" font-family="'OCRAExtended'" font-size="24" rotate="-99.862">d</tspan><tspan x="-133.864" y="160.197" font-family="'OCRAExtended'" font-size="24" rotate="-94.276">i</tspan><tspan x="-134.924" y="146.481" font-family="'OCRAExtended'" font-size="24" rotate="-88.715">n</tspan><tspan x="-134.651" y="132.739" font-family="'OCRAExtended'" font-size="24" rotate="-83.218">g</tspan></text>
</g>
<g id="Inner_Circle">
	<path fill="none" stroke="#000000" stroke-miterlimit="10" stroke-dasharray="0.5,1" d="M226.284,82.887
		C279.915,94.871,320,142.755,320,200c0,56.17-38.593,103.325-90.708,116.398"/>
	<path fill="none" stroke="#000000" stroke-miterlimit="10" stroke-dasharray="0.5,1" d="M168.201,315.741
		C117.359,301.806,80,255.266,80,200c0-55.736,38-102.599,89.506-116.091"/>
</g>
<g id="Inner_Circle_copy">
	<circle fill="none" cx="200" cy="200" r="119.999"/>
	<text transform="matrix(0.9913 -0.1317 0.1317 0.9913 180.9014 85.5576)"><tspan x="0" y="0" font-family="'LucidaConsole'" font-size="13">G</tspan><tspan x="7.568" y="-0.01" font-family="'LucidaConsole'" font-size="13" rotate="3.767">h</tspan><tspan x="15.128" y="0.48" font-family="'LucidaConsole'" font-size="13" rotate="7.541">0</tspan><tspan x="22.633" y="1.465" font-family="'LucidaConsole'" font-size="13" rotate="11.307">s</tspan><tspan x="30.066" y="2.943" font-family="'LucidaConsole'" font-size="13" rotate="15.064">t</tspan></text>
</g>
<g id="Inner_Circle_copy_2">
	<circle fill="none" cx="200" cy="199.999" r="120"/>
	<text transform="matrix(-0.9946 0.1042 -0.1042 -0.9946 215.9199 314.9277)"><tspan x="0" y="0" font-family="'LucidaConsole'" font-size="13">B</tspan><tspan x="7.568" y="-0.009" font-family="'LucidaConsole'" font-size="13" rotate="3.766">y</tspan><tspan x="15.128" y="0.48" font-family="'LucidaConsole'" font-size="13" rotate="7.539">t</tspan><tspan x="22.634" y="1.465" font-family="'LucidaConsole'" font-size="13" rotate="11.306">e</tspan></text>
</g>
<g id="Layer_5" display="none">
</g>
<g id="GB">
	<text transform="matrix(1 0 0 1 147.1753 198.9468)" font-family="'Kartika'" font-size="100">G</text>
	<text transform="matrix(1 0 0 1 179.1934 248.5088)" font-family="'Kartika'" font-size="100">B</text>
</g>
<g id="Layer_10">
	<line fill="none" stroke="#000000" stroke-width="2" stroke-miterlimit="10" x1="180.07" y1="209.912" x2="103.316" y2="209.912"/>
</g>
<g id="Layer_10_copy_2">
	<line fill="none" stroke="#000000" stroke-width="2" stroke-miterlimit="10" x1="147.614" y1="179.21" x2="103.754" y2="179.21"/>
</g>
<g id="Layer_10_copy_3">
	<line fill="none" stroke="#000000" stroke-width="2" stroke-miterlimit="10" x1="293.229" y1="178.333" x2="239.28" y2="178.333"/>
</g>
<g id="Layer_10_copy">
	
		<line fill="none" stroke="#000000" stroke-width="2" stroke-miterlimit="10" x1="295.421" y1="208.596" x2="238.843" y2="208.596"/>
</g>
<g id="Layer_14">
	<text transform="matrix(1 0 0 1 106.8242 198.9473)"><tspan x="0" y="0" font-family="'HarlowSolid'" font-size="20">Since</tspan><tspan x="44.336" y="0" font-family="'HarlowSolid'" font-size="20" letter-spacing="22">	</tspan><tspan x="72" y="0" font-family="'HarlowSolid'" font-size="20" letter-spacing="31">		</tspan><tspan x="144" y="0" font-family="'HarlowSolid'" font-size="20">2012</tspan></text>
</g>
<g id="Layer_15">
</g>
</svg>
