<?xml version="1.0" encoding="utf-8"?>
<!-- Generator: Adobe Illustrator 16.0.0, SVG Export Plug-In . SVG Version: 6.00 Build 0)  -->
<!DOCTYPE svg PUBLIC "-//W3C//DTD SVG 1.1//EN" "http://www.w3.org/Graphics/SVG/1.1/DTD/svg11.dtd">
<svg version="1.1" id="Circles" xmlns="http://www.w3.org/2000/svg" xmlns:xlink="http://www.w3.org/1999/xlink" x="0px" y="0px"
	 width="100%" height="100%" viewBox="0 0 400 400" enable-background="new 0 0 400 400" xml:space="preserve">
<g id="Outter_Circle">
	
		<circle fill="none" stroke="#000000" stroke-width="12" stroke-miterlimit="10" stroke-dasharray="0.5,2" cx="200" cy="200" r="175"/>
</g>
<g id="Middle_Circle">
	<path fill="none" stroke="#000000" stroke-width="2" stroke-miterlimit="10" d="M262.004,336.589
		c-14.614,6.626-30.248,10.903-46.279,12.606c-26.581,2.827-54.25-1.416-80.157-13.739"/>
	<path fill="none" stroke="#000000" stroke-width="2" stroke-miterlimit="10" d="M335.457,264.432"/>
	<path fill="none" stroke="#000000" stroke-width="2" stroke-miterlimit="10" d="M264.432,64.542"/>
	<path fill="none" stroke="#000000" stroke-width="2" stroke-miterlimit="10" d="M64.544,135.567"/>
</g>
<g id="Middle_Circle_copy">
	<g>
		<path d="M103.959,306.313l-9.467,9.771c-0.185,0.19-0.414,0.289-0.688,0.297c-0.273,0.007-0.508-0.084-0.705-0.275
			c-0.19-0.184-0.289-0.415-0.293-0.691c-0.004-0.275,0.086-0.51,0.271-0.7l4.037-4.166l-4.309-4.175l-4.037,4.166
			c-0.185,0.189-0.414,0.289-0.688,0.297c-0.272,0.006-0.508-0.084-0.704-0.275c-0.197-0.189-0.296-0.422-0.297-0.695
			c-0.001-0.273,0.095-0.512,0.291-0.713l9.452-9.754c0.185-0.191,0.417-0.288,0.696-0.289c0.279-0.002,0.511,0.087,0.696,0.267
			c0.202,0.196,0.303,0.427,0.305,0.695s-0.093,0.5-0.283,0.696l-4.061,4.191l4.292,4.159l4.062-4.191
			c0.185-0.19,0.417-0.286,0.695-0.288s0.517,0.092,0.713,0.283c0.19,0.184,0.29,0.413,0.296,0.687
			C104.241,305.882,104.15,306.117,103.959,306.313z"/>
		<path d="M87.578,298.242l-2.502-2.939c-0.137-0.161-0.299-0.424-0.486-0.789l-1.047,0.922c-0.208,0.176-0.323,0.4-0.344,0.67
			c-0.021,0.271,0.056,0.51,0.234,0.719l2.427,2.854c0.172,0.203,0.248,0.441,0.226,0.717c-0.021,0.275-0.134,0.5-0.337,0.672
			c-0.208,0.178-0.446,0.255-0.717,0.233c-0.27-0.022-0.494-0.138-0.671-0.347l-2.426-2.852c-0.527-0.619-0.76-1.333-0.698-2.141
			c0.062-0.809,0.4-1.488,1.016-2.043l5.455-4.964c0.209-0.177,0.449-0.253,0.721-0.229c0.272,0.025,0.495,0.139,0.667,0.342
			c0.182,0.214,0.264,0.457,0.245,0.73c-0.02,0.272-0.133,0.497-0.341,0.674l1.83,0.633l2.16,2.538
			c0.538,0.632,0.773,1.354,0.708,2.171c-0.065,0.815-0.413,1.492-1.044,2.027l-0.875,0.744c-0.625,0.532-1.348,0.765-2.168,0.697
			C88.787,299.215,88.11,298.869,87.578,298.242z M87.306,292.01l-0.596,0.584c-0.209,0.188-0.324,0.414-0.345,0.68
			c-0.021,0.264,0.057,0.501,0.234,0.709l2.517,2.957c0.177,0.209,0.401,0.324,0.67,0.346c0.271,0.021,0.509-0.057,0.717-0.232
			l0.839-0.715c0.202-0.172,0.314-0.396,0.337-0.671c0.021-0.275-0.053-0.515-0.226-0.718l-1.801-2.116L87.306,292.01z"/>
		<path d="M80.988,277.92l2.409,3.449c0.425,0.607,0.605,1.256,0.54,1.938l-0.27,2.521c-0.067,0.789-0.457,1.433-1.167,1.93
			l-2.104,1.469c-0.667,0.505-1.459,0.64-2.378,0.402l-2.207-0.56c-0.688-0.195-1.214-0.552-1.577-1.071l-2.529-3.621
			c-0.157-0.225-0.211-0.469-0.164-0.734c0.047-0.268,0.182-0.48,0.407-0.635c0.23-0.162,0.477-0.219,0.74-0.17
			c0.264,0.051,0.474,0.188,0.629,0.411l2.423,3.469c0.153,0.218,0.385,0.366,0.696,0.444l2.01,0.523
			c0.328,0.086,0.641,0.023,0.942-0.186l1.97-1.375c0.211-0.148,0.333-0.356,0.363-0.627l0.217-2.268
			c0.036-0.291-0.05-0.583-0.256-0.878l-2.309-3.306c-0.152-0.217-0.206-0.461-0.16-0.73c0.044-0.27,0.18-0.482,0.404-0.639
			c0.224-0.157,0.469-0.212,0.735-0.166C80.62,277.561,80.832,277.696,80.988,277.92z"/>
		<path d="M77.549,274.37l-11.828,6.675c-0.245,0.139-0.5,0.173-0.765,0.102c-0.263-0.07-0.462-0.225-0.598-0.463
			c-0.133-0.237-0.163-0.488-0.087-0.75c0.076-0.264,0.236-0.465,0.481-0.602l7.001-3.952l-6.523-2.401
			c-0.275-0.105-0.478-0.273-0.608-0.504c-0.138-0.245-0.166-0.5-0.084-0.76c0.082-0.262,0.241-0.46,0.48-0.595
			c0.252-0.143,0.503-0.168,0.752-0.077l5.067,1.882l1.389-6.626c0.043-0.258,0.18-0.451,0.411-0.582
			c0.224-0.127,0.473-0.159,0.745-0.098c0.272,0.062,0.476,0.211,0.61,0.449c0.134,0.238,0.175,0.493,0.123,0.766l-1.391,6.809
			l1.266,0.475l2.591-1.462c0.237-0.135,0.487-0.165,0.747-0.093c0.261,0.072,0.458,0.229,0.593,0.467s0.166,0.486,0.092,0.748
			C77.943,274.038,77.788,274.235,77.549,274.37z"/>
		<path d="M55.195,264.872l-0.417-0.942c-0.111-0.25-0.117-0.502-0.02-0.754c0.098-0.253,0.271-0.434,0.521-0.545l0.772-0.342
			c0.25-0.11,0.505-0.118,0.764-0.023c0.26,0.094,0.445,0.266,0.555,0.516l0.427,0.965c0.114,0.257,0.117,0.514,0.009,0.771
			c-0.109,0.257-0.278,0.433-0.511,0.527l-0.802,0.329c-0.25,0.11-0.501,0.118-0.754,0.02
			C55.487,265.297,55.306,265.123,55.195,264.872z M68.585,254.561l2.43,5.488c0.11,0.248,0.117,0.5,0.019,0.753
			c-0.097,0.253-0.271,0.435-0.521,0.544c-0.243,0.107-0.491,0.114-0.749,0.018c-0.255-0.096-0.439-0.269-0.549-0.519l-0.816-1.843
			l-6.72,2.975l0.807,1.822c0.111,0.25,0.116,0.502,0.014,0.756c-0.101,0.254-0.273,0.434-0.516,0.541
			c-0.25,0.111-0.505,0.119-0.765,0.025s-0.445-0.267-0.556-0.518l-1.214-2.742c-0.11-0.25-0.114-0.504-0.009-0.759
			c0.104-0.256,0.282-0.438,0.532-0.55l7.619-3.373l-0.797-1.8c-0.111-0.251-0.119-0.505-0.025-0.765
			c0.095-0.26,0.268-0.445,0.518-0.555c0.249-0.111,0.501-0.116,0.756-0.016C68.297,254.146,68.479,254.318,68.585,254.561z"/>
		<path d="M56.409,247.57l2.502,2.006l5.975-1.976c0.252-0.083,0.501-0.063,0.748,0.062c0.247,0.123,0.412,0.312,0.496,0.564
			c0.083,0.251,0.063,0.501-0.062,0.747c-0.124,0.247-0.313,0.412-0.564,0.496l-8.868,2.931c-0.26,0.087-0.515,0.069-0.764-0.049
			c-0.249-0.12-0.417-0.309-0.502-0.568c-0.083-0.253-0.061-0.504,0.066-0.752c0.128-0.246,0.322-0.414,0.582-0.5l0.623-0.205
			l-1.599-1.364c-0.553-0.452-0.948-1.038-1.186-1.759l-0.288-0.868c-0.246-0.743-0.194-1.473,0.152-2.188
			c0.349-0.717,0.903-1.219,1.664-1.502l7.003-2.6c0.249-0.091,0.498-0.074,0.744,0.05c0.247,0.124,0.414,0.316,0.5,0.577
			c0.081,0.244,0.068,0.486-0.037,0.727c-0.106,0.241-0.301,0.413-0.588,0.516l-6.885,2.584c-0.646,0.238-0.858,0.689-0.64,1.35
			l0.302,0.914C55.877,247.045,56.085,247.314,56.409,247.57z"/>
		<path d="M65.072,229.105l0.94,4.162c0.06,0.267,0.02,0.514-0.121,0.741c-0.141,0.229-0.348,0.373-0.623,0.436
			c-0.267,0.061-0.512,0.017-0.737-0.128c-0.225-0.146-0.368-0.352-0.429-0.619l-0.939-4.16c-0.057-0.251-0.206-0.467-0.446-0.645
			l-0.707-0.525c-0.218-0.182-0.464-0.242-0.738-0.181l-2.927,0.661c1.11,0.693,1.762,1.469,1.954,2.321l0.333,1.474
			c0.173,0.764,0.064,1.508-0.324,2.237l-0.478,0.864c-0.145,0.281-0.389,0.551-0.731,0.807c-0.342,0.258-0.696,0.429-1.062,0.512
			l-3.178,0.718c-0.449,0.102-0.896,0.112-1.338,0.032c-0.442-0.08-0.789-0.217-1.041-0.408l-0.852-0.637
			c-0.615-0.453-1.009-1.062-1.181-1.824l-0.313-1.383c-0.17-0.754-0.058-1.5,0.336-2.238l0.41-0.789l-0.372,0.107
			c-0.258,0.059-0.505,0.015-0.739-0.133c-0.233-0.148-0.379-0.352-0.438-0.61c-0.06-0.267-0.019-0.518,0.124-0.755
			c0.143-0.236,0.348-0.385,0.614-0.445l10.768-2.432c0.815-0.184,1.586-0.014,2.314,0.512l0.85,0.625
			c0.22,0.158,0.436,0.403,0.647,0.736S65.002,228.794,65.072,229.105z M52.072,233.195l0.292,1.292
			c0.064,0.282,0.235,0.528,0.515,0.737l0.626,0.483c0.242,0.185,0.526,0.241,0.854,0.167l3.201-0.723
			c0.259-0.06,0.475-0.24,0.646-0.543l0.417-0.755c0.124-0.235,0.16-0.465,0.11-0.686l-0.354-1.566
			c-0.052-0.229-0.223-0.454-0.513-0.677l-1.635-1.229c-0.259-0.189-0.537-0.252-0.834-0.184l-1.452,0.327
			c-0.351,0.079-0.606,0.277-0.767,0.595l-0.984,1.867C52.039,232.57,51.999,232.868,52.072,233.195z"/>
		<path d="M49.836,199.27l0.867-0.025c0.274-0.007,0.513,0.082,0.717,0.268c0.205,0.185,0.311,0.414,0.319,0.688l0.228,7.943
			c0.007,0.272-0.085,0.508-0.279,0.705c-0.193,0.197-0.427,0.299-0.701,0.307l-0.867,0.025c-0.273,0.008-0.508-0.082-0.705-0.268
			c-0.196-0.186-0.299-0.415-0.307-0.688l-0.227-7.943c-0.007-0.25,0.078-0.479,0.255-0.688
			C49.314,199.387,49.547,199.277,49.836,199.27z"/>
		<path d="M57.927,181.353l-14.395-2.377l1.137-6.891c0.131-0.795,0.533-1.431,1.206-1.909c0.673-0.479,1.411-0.652,2.213-0.52
			l3.642,0.601c0.802,0.133,1.44,0.53,1.917,1.195c0.477,0.665,0.648,1.398,0.516,2.2l-0.813,4.926l4.902,0.809
			c0.27,0.045,0.483,0.177,0.641,0.396c0.158,0.221,0.214,0.466,0.17,0.735c-0.046,0.276-0.179,0.497-0.4,0.658
			S58.197,181.396,57.927,181.353z M51.407,178.256l0.813-4.925c0.043-0.262-0.013-0.505-0.17-0.729
			c-0.158-0.225-0.371-0.358-0.641-0.403l-3.642-0.602c-0.271-0.045-0.516,0.015-0.736,0.176c-0.22,0.162-0.353,0.373-0.396,0.637
			l-0.813,4.925L51.407,178.256z"/>
		<path d="M60.385,167.707l-9.026-2.4c-0.265-0.07-0.468-0.223-0.612-0.46c-0.143-0.235-0.181-0.485-0.109-0.75
			c0.07-0.265,0.224-0.464,0.462-0.599c0.238-0.135,0.493-0.166,0.764-0.094l1.189,0.316l-0.912-1.904
			c-0.374-0.786-0.479-1.485-0.315-2.098l0.37-1.393c0.209-0.785,0.667-1.383,1.374-1.793c0.708-0.41,1.454-0.51,2.239-0.303
			l0.509,0.137c0.272,0.072,0.478,0.226,0.618,0.461c0.14,0.234,0.174,0.484,0.104,0.748c-0.071,0.266-0.223,0.465-0.457,0.602
			c-0.234,0.135-0.483,0.168-0.748,0.098l-0.533-0.141c-0.263-0.071-0.513-0.038-0.747,0.098c-0.235,0.136-0.387,0.336-0.457,0.6
			l-0.329,1.235c-0.07,0.265-0.009,0.596,0.185,0.995l1.625,3.329l5.312,1.411c0.265,0.072,0.464,0.227,0.599,0.463
			c0.134,0.238,0.168,0.486,0.099,0.742c-0.07,0.265-0.222,0.465-0.456,0.602C60.898,167.744,60.649,167.777,60.385,167.707z"/>
		<path d="M61.245,142.732l3.899,1.451c0.828,0.307,1.447,0.981,1.86,2.022c0.413,1.042,0.466,1.978,0.158,2.804l-0.805,2.164
			c-0.313,0.842-0.97,1.514-1.97,2.018s-1.902,0.605-2.708,0.305l-3.899-1.451c-0.805-0.299-1.425-0.957-1.86-1.973
			c-0.435-1.017-0.488-1.964-0.161-2.843l0.805-2.163c0.293-0.834,0.937-1.51,1.93-2.027
			C59.485,142.521,60.403,142.418,61.245,142.732z M58.551,150.207l3.734,1.39c0.337,0.125,0.649,0.104,0.937-0.063l0.851-0.472
			c0.188-0.105,0.334-0.297,0.438-0.575l0.797-2.142c0.117-0.314,0.11-0.642-0.021-0.983L65,146.617
			c-0.091-0.291-0.294-0.496-0.609-0.613l-3.734-1.389c-0.366-0.138-0.679-0.125-0.94,0.037l-0.757,0.456
			c-0.265,0.15-0.452,0.373-0.561,0.666l-0.711,1.911c-0.155,0.418-0.176,0.777-0.063,1.077l0.306,0.826
			C58.037,149.887,58.243,150.094,58.551,150.207z"/>
		<path d="M76.538,138.201l-1.867,3.835c-0.12,0.246-0.306,0.414-0.558,0.504c-0.252,0.091-0.505,0.073-0.758-0.05
			c-0.246-0.119-0.411-0.306-0.497-0.561c-0.084-0.254-0.067-0.504,0.053-0.75l1.867-3.836c0.112-0.23,0.13-0.492,0.055-0.781
			l-0.224-0.852c-0.055-0.279-0.209-0.48-0.463-0.604l-2.698-1.313c0.434,1.236,0.458,2.248,0.074,3.034l-0.661,1.359
			c-0.343,0.702-0.892,1.217-1.65,1.542l-0.914,0.377c-0.289,0.129-0.646,0.188-1.075,0.174c-0.428-0.012-0.811-0.102-1.148-0.266
			l-2.93-1.426c-0.414-0.201-0.77-0.472-1.064-0.812c-0.295-0.339-0.481-0.661-0.558-0.969l-0.268-1.029
			c-0.196-0.739-0.124-1.459,0.218-2.161l0.621-1.275c0.338-0.695,0.892-1.209,1.66-1.538l0.814-0.36l-0.357-0.147
			c-0.239-0.116-0.404-0.305-0.494-0.565c-0.091-0.262-0.077-0.512,0.039-0.75c0.12-0.246,0.31-0.417,0.569-0.512
			c0.26-0.096,0.512-0.084,0.758,0.036l9.925,4.831c0.752,0.365,1.248,0.98,1.488,1.845l0.272,1.019
			c0.073,0.262,0.087,0.588,0.045,0.98C76.769,137.572,76.677,137.912,76.538,138.201z M63.833,133.268l-0.579,1.191
			c-0.127,0.26-0.146,0.559-0.059,0.896l0.186,0.769c0.073,0.296,0.261,0.519,0.563,0.665l2.949,1.436
			c0.24,0.117,0.521,0.11,0.845-0.019l0.798-0.329c0.244-0.106,0.415-0.262,0.514-0.467l0.702-1.443
			c0.103-0.211,0.111-0.494,0.022-0.848l-0.508-1.982c-0.084-0.31-0.263-0.531-0.536-0.665l-1.339-0.651
			c-0.322-0.156-0.646-0.162-0.969-0.016l-1.936,0.844C64.197,132.76,63.979,132.967,63.833,133.268z"/>
		<path d="M75.392,129.129l-7.962-4.883c-0.232-0.143-0.384-0.348-0.454-0.615c-0.07-0.267-0.033-0.517,0.109-0.75
			c0.143-0.232,0.348-0.38,0.614-0.441c0.266-0.061,0.52-0.018,0.76,0.129l1.048,0.644l-0.329-2.085
			c-0.132-0.861-0.034-1.561,0.297-2.1l0.754-1.229c0.425-0.693,1.034-1.135,1.83-1.326c0.795-0.189,1.539-0.072,2.231,0.352
			l0.45,0.276c0.24,0.147,0.393,0.354,0.459,0.618c0.066,0.266,0.028,0.516-0.115,0.748c-0.143,0.233-0.346,0.381-0.609,0.444
			c-0.263,0.063-0.511,0.022-0.744-0.12l-0.469-0.288c-0.233-0.143-0.481-0.183-0.745-0.12c-0.263,0.064-0.466,0.211-0.609,0.444
			l-0.668,1.089c-0.143,0.233-0.179,0.569-0.109,1.006l0.604,3.656l4.685,2.873c0.233,0.144,0.38,0.349,0.441,0.614
			c0.061,0.267,0.023,0.514-0.116,0.739c-0.143,0.234-0.346,0.382-0.609,0.445C75.873,129.313,75.625,129.273,75.392,129.129z"/>
		<path d="M79.686,111.419l2.329-3.079c0.127-0.169,0.349-0.384,0.664-0.646l-1.126-0.822c-0.218-0.164-0.46-0.229-0.729-0.191
			c-0.269,0.038-0.486,0.166-0.651,0.385l-2.259,2.987c-0.161,0.213-0.378,0.337-0.652,0.376s-0.517-0.022-0.728-0.184
			c-0.218-0.164-0.346-0.381-0.383-0.648c-0.037-0.27,0.027-0.512,0.192-0.73l2.259-2.986c0.49-0.649,1.137-1.031,1.938-1.146
			c0.802-0.113,1.541,0.068,2.215,0.549l6.028,4.251c0.218,0.165,0.345,0.384,0.38,0.654c0.034,0.271-0.028,0.513-0.188,0.724
			c-0.17,0.225-0.39,0.357-0.66,0.398c-0.271,0.04-0.515-0.022-0.733-0.188l-0.22,1.924l-2.011,2.657
			c-0.5,0.661-1.155,1.05-1.965,1.163c-0.81,0.112-1.546-0.081-2.207-0.58l-0.917-0.693c-0.653-0.494-1.038-1.15-1.149-1.966
			C78.999,112.81,79.19,112.074,79.686,111.419z M85.712,109.804l-0.699-0.455c-0.229-0.164-0.475-0.228-0.737-0.19
			c-0.263,0.037-0.477,0.164-0.642,0.383l-2.342,3.096c-0.165,0.219-0.229,0.463-0.191,0.73c0.037,0.269,0.165,0.485,0.382,0.65
			l0.878,0.664c0.212,0.16,0.455,0.221,0.729,0.184c0.273-0.039,0.491-0.164,0.651-0.376l1.677-2.217L85.712,109.804z"/>
		<path d="M91.131,106.725l-6.867-6.33c-0.201-0.185-0.308-0.413-0.318-0.684c-0.011-0.27,0.076-0.506,0.262-0.707
			c0.344-0.373,0.745-0.439,1.202-0.198c-0.008-0.751,0.214-1.374,0.668-1.866c0.534-0.579,1.22-0.828,2.058-0.746
			c-0.071-0.914,0.147-1.646,0.655-2.197c0.413-0.447,0.93-0.688,1.553-0.725c0.623-0.036,1.191,0.162,1.707,0.595l6.101,5.241
			c0.196,0.181,0.299,0.408,0.311,0.685c0.011,0.276-0.073,0.512-0.253,0.707c-0.186,0.201-0.416,0.308-0.692,0.318
			c-0.275,0.012-0.514-0.07-0.714-0.245l-5.837-5.061c-0.32-0.275-0.563-0.322-0.728-0.146c-0.09,0.098-0.139,0.239-0.148,0.421
			l-0.07,1.529l5.291,4.877c0.195,0.18,0.296,0.403,0.304,0.672c0.008,0.267-0.081,0.502-0.266,0.702
			c-0.18,0.195-0.406,0.3-0.68,0.313c-0.273,0.015-0.51-0.07-0.711-0.257l-5.756-5.306c-0.247-0.227-0.467-0.234-0.663-0.023
			c-0.095,0.103-0.144,0.231-0.148,0.387l-0.078,1.846l5.152,4.75c0.196,0.18,0.302,0.404,0.318,0.676
			c0.017,0.271-0.065,0.503-0.246,0.697c-0.185,0.203-0.417,0.311-0.696,0.324C91.563,106.988,91.327,106.904,91.131,106.725z"/>
		<path d="M100.649,96.665l-6.224-6.963c-0.182-0.204-0.266-0.44-0.25-0.712c0.015-0.27,0.125-0.496,0.328-0.678
			c0.378-0.339,0.785-0.365,1.217-0.081c0.063-0.749,0.345-1.347,0.846-1.794c0.587-0.525,1.294-0.706,2.12-0.543
			c0.017-0.918,0.305-1.625,0.864-2.123c0.453-0.406,0.992-0.598,1.615-0.572c0.624,0.023,1.171,0.275,1.642,0.756l5.568,5.807
			c0.177,0.197,0.258,0.435,0.243,0.711c-0.016,0.275-0.123,0.502-0.32,0.679c-0.205,0.183-0.444,0.267-0.72,0.25
			c-0.276-0.016-0.505-0.119-0.688-0.313l-5.321-5.601c-0.292-0.305-0.53-0.377-0.71-0.215c-0.099,0.088-0.162,0.223-0.188,0.404
			l-0.218,1.516l4.795,5.363c0.177,0.198,0.257,0.432,0.239,0.698c-0.018,0.268-0.128,0.493-0.332,0.675
			c-0.198,0.178-0.434,0.26-0.708,0.247c-0.273-0.013-0.5-0.12-0.683-0.325l-5.217-5.836c-0.224-0.25-0.443-0.28-0.658-0.088
			c-0.104,0.094-0.166,0.217-0.185,0.369l-0.255,1.832l4.67,5.225c0.178,0.198,0.262,0.433,0.251,0.703
			c-0.009,0.27-0.114,0.494-0.311,0.671c-0.205,0.183-0.445,0.268-0.724,0.255C101.054,96.969,100.827,96.863,100.649,96.665z"/>
		<path d="M105.341,72.607L106.174,72c0.221-0.162,0.465-0.221,0.732-0.18c0.268,0.043,0.482,0.174,0.643,0.396l0.497,0.682
			c0.161,0.222,0.223,0.468,0.186,0.741c-0.038,0.275-0.167,0.492-0.387,0.653l-0.853,0.62c-0.228,0.166-0.478,0.224-0.752,0.172
			c-0.274-0.051-0.482-0.18-0.623-0.387l-0.492-0.715c-0.161-0.221-0.221-0.465-0.179-0.732S105.12,72.768,105.341,72.607z
			 M118.25,83.515l-4.849,3.534c-0.221,0.161-0.465,0.221-0.733,0.18c-0.267-0.043-0.481-0.174-0.642-0.396
			c-0.157-0.213-0.215-0.457-0.176-0.727c0.041-0.27,0.17-0.486,0.391-0.647l1.629-1.188l-4.327-5.938l-1.61,1.174
			c-0.221,0.162-0.466,0.219-0.736,0.174c-0.27-0.045-0.483-0.175-0.639-0.39c-0.161-0.221-0.223-0.468-0.186-0.741
			c0.038-0.274,0.167-0.492,0.387-0.653l2.424-1.767c0.222-0.16,0.468-0.217,0.74-0.169s0.489,0.183,0.649,0.403l4.908,6.734
			l1.591-1.16c0.221-0.16,0.468-0.223,0.742-0.186s0.491,0.167,0.652,0.389c0.162,0.221,0.219,0.465,0.174,0.735
			C118.594,83.146,118.464,83.359,118.25,83.515z"/>
		<path d="M122.445,70.086l-1.413,2.877l3.227,5.403c0.136,0.228,0.17,0.476,0.103,0.743c-0.067,0.269-0.215,0.471-0.443,0.607
			c-0.229,0.136-0.477,0.17-0.744,0.103c-0.268-0.068-0.47-0.216-0.606-0.444l-4.79-8.018c-0.141-0.234-0.179-0.486-0.118-0.756
			c0.063-0.27,0.211-0.474,0.446-0.613c0.229-0.137,0.477-0.17,0.747-0.099c0.27,0.07,0.476,0.224,0.616,0.458l0.336,0.563
			l0.983-1.856c0.322-0.639,0.808-1.152,1.459-1.541l0.785-0.469c0.672-0.402,1.396-0.511,2.171-0.327
			c0.774,0.184,1.383,0.616,1.827,1.298l4.059,6.27c0.144,0.225,0.181,0.471,0.113,0.738c-0.067,0.269-0.219,0.472-0.454,0.611
			c-0.221,0.133-0.46,0.174-0.718,0.123c-0.258-0.051-0.469-0.205-0.631-0.463l-4.02-6.158c-0.373-0.578-0.858-0.688-1.457-0.33
			l-0.826,0.494C122.842,69.453,122.625,69.715,122.445,70.086z"/>
		<path d="M142.377,74.509l-3.856,1.823c-0.248,0.117-0.498,0.133-0.751,0.045c-0.253-0.089-0.44-0.26-0.56-0.514
			c-0.117-0.248-0.128-0.496-0.036-0.748c0.093-0.252,0.263-0.436,0.51-0.553l3.856-1.822c0.234-0.11,0.411-0.303,0.532-0.576
			l0.358-0.805c0.132-0.252,0.136-0.506,0.016-0.76l-1.282-2.712c-0.435,1.235-1.049,2.039-1.84,2.413l-1.367,0.646
			c-0.706,0.334-1.457,0.39-2.252,0.17l-0.948-0.277c-0.305-0.08-0.621-0.26-0.947-0.537c-0.326-0.279-0.57-0.587-0.729-0.926
			l-1.393-2.945c-0.196-0.417-0.304-0.85-0.322-1.3c-0.017-0.448,0.04-0.817,0.171-1.104l0.436-0.971
			c0.309-0.699,0.816-1.216,1.523-1.549l1.282-0.607c0.7-0.33,1.453-0.383,2.258-0.16l0.86,0.229l-0.186-0.339
			c-0.114-0.239-0.124-0.49-0.031-0.751c0.093-0.259,0.26-0.445,0.5-0.56c0.248-0.116,0.502-0.132,0.765-0.044
			c0.261,0.089,0.451,0.256,0.567,0.504l4.718,9.98c0.357,0.755,0.359,1.545,0.005,2.368l-0.425,0.966
			c-0.106,0.25-0.299,0.514-0.578,0.792C142.95,74.164,142.667,74.372,142.377,74.509z M135.555,62.711l-1.196,0.566
			c-0.261,0.123-0.464,0.345-0.607,0.662l-0.336,0.716c-0.129,0.277-0.121,0.567,0.023,0.871l1.402,2.966
			c0.114,0.24,0.337,0.412,0.67,0.514l0.828,0.243c0.257,0.069,0.488,0.056,0.692-0.042l1.451-0.687
			c0.212-0.101,0.396-0.315,0.55-0.647l0.843-1.863c0.128-0.295,0.127-0.58-0.002-0.855l-0.637-1.346
			c-0.153-0.324-0.401-0.531-0.746-0.619l-2.037-0.553C136.158,62.543,135.858,62.567,135.555,62.711z"/>
		<path d="M168.17,53.164l0.212,0.842c0.066,0.266,0.032,0.518-0.105,0.758s-0.338,0.394-0.603,0.461l-7.705,1.941
			c-0.265,0.066-0.514,0.027-0.749-0.119c-0.234-0.146-0.384-0.352-0.452-0.616l-0.212-0.841c-0.066-0.266-0.031-0.515,0.108-0.748
			c0.138-0.231,0.34-0.382,0.606-0.448l7.704-1.942c0.243-0.063,0.485-0.027,0.726,0.102
			C167.942,52.68,168.099,52.885,168.17,53.164z"/>
		<path d="M192.328,42.324l3.265-0.174c0.273-0.015,0.51,0.068,0.711,0.249c0.201,0.181,0.309,0.408,0.324,0.681
			c0.014,0.289-0.076,0.535-0.273,0.736c-0.196,0.203-0.417,0.311-0.658,0.324l-3.118,0.166c-0.305,0.012-0.563,0.168-0.773,0.47
			l-2.568,3.696c-0.219,0.293-0.313,0.689-0.286,1.189l0.291,5.443c0.015,0.281,0.123,0.514,0.324,0.697
			c0.203,0.186,0.439,0.271,0.713,0.256l4.001-0.213c0.265-0.015,0.49-0.125,0.675-0.33c0.185-0.205,0.27-0.441,0.255-0.706
			l-0.113-2.13l-2.037,0.109c-0.281,0.015-0.52-0.068-0.717-0.25c-0.197-0.181-0.303-0.408-0.318-0.682
			c-0.015-0.271,0.066-0.51,0.244-0.711c0.176-0.2,0.405-0.309,0.686-0.324l4.002-0.213l0.219,4.096
			c0.044,0.811-0.208,1.521-0.754,2.129s-1.226,0.934-2.037,0.977l-4.001,0.214c-0.819,0.044-1.535-0.208-2.147-0.754
			c-0.612-0.545-0.939-1.224-0.982-2.036l-0.291-5.441c-0.051-0.975,0.166-1.813,0.653-2.511l2.705-3.841
			c0.195-0.293,0.478-0.547,0.846-0.762C191.535,42.465,191.923,42.346,192.328,42.324z"/>
		<path d="M204.447,50.676l3.857,0.167c0.211,0.01,0.514,0.069,0.908,0.179l0.037-1.393c0.012-0.273-0.073-0.51-0.256-0.709
			c-0.184-0.199-0.413-0.306-0.688-0.316l-3.742-0.162c-0.266-0.012-0.492-0.119-0.679-0.322c-0.188-0.203-0.275-0.438-0.264-0.703
			c0.012-0.273,0.118-0.502,0.317-0.685s0.436-0.27,0.71-0.257l3.739,0.161c0.813,0.035,1.495,0.351,2.046,0.944
			c0.55,0.595,0.819,1.307,0.806,2.134l-0.071,7.376c-0.011,0.273-0.118,0.5-0.321,0.684c-0.203,0.183-0.439,0.268-0.704,0.258
			c-0.28-0.013-0.515-0.119-0.702-0.318c-0.186-0.2-0.273-0.436-0.263-0.71l-1.706,0.913l-3.331-0.144
			c-0.828-0.036-1.52-0.354-2.073-0.958c-0.553-0.603-0.813-1.316-0.776-2.145l0.049-1.148c0.036-0.818,0.357-1.507,0.964-2.063
			C202.913,50.902,203.627,50.643,204.447,50.676z M209.201,54.718l-0.021-0.835c0.003-0.281-0.084-0.52-0.264-0.715
			s-0.406-0.299-0.68-0.311l-3.879-0.168c-0.274-0.011-0.51,0.074-0.71,0.258c-0.199,0.184-0.306,0.411-0.317,0.684l-0.047,1.102
			c-0.012,0.266,0.076,0.5,0.264,0.703c0.187,0.203,0.413,0.311,0.678,0.322l2.777,0.119L209.201,54.718z"/>
		<path d="M214.82,57.425l1.294-9.251c0.038-0.27,0.165-0.487,0.38-0.65c0.217-0.162,0.461-0.225,0.731-0.188
			c0.503,0.07,0.785,0.362,0.848,0.877c0.612-0.436,1.251-0.606,1.915-0.514c0.78,0.109,1.375,0.531,1.785,1.268
			c0.71-0.579,1.437-0.817,2.178-0.713c0.604,0.084,1.097,0.372,1.48,0.863c0.385,0.492,0.545,1.072,0.482,1.742l-0.834,8.001
			c-0.037,0.263-0.167,0.478-0.387,0.644c-0.221,0.166-0.462,0.232-0.725,0.194c-0.272-0.038-0.49-0.167-0.657-0.388
			c-0.166-0.221-0.234-0.462-0.206-0.727l0.839-7.681c0.043-0.421-0.056-0.647-0.296-0.681c-0.131-0.018-0.275,0.021-0.43,0.117
			l-1.297,0.813l-0.998,7.126c-0.036,0.264-0.162,0.474-0.378,0.634c-0.216,0.159-0.458,0.22-0.729,0.182
			c-0.264-0.037-0.479-0.163-0.645-0.381c-0.168-0.217-0.232-0.459-0.194-0.73l1.085-7.752c0.047-0.333-0.072-0.52-0.357-0.559
			c-0.139-0.021-0.273,0.012-0.401,0.097l-1.563,0.988l-0.972,6.94c-0.037,0.264-0.162,0.479-0.375,0.646
			c-0.212,0.167-0.451,0.232-0.713,0.195c-0.271-0.038-0.492-0.168-0.662-0.389S214.783,57.688,214.82,57.425z"/>
		<path d="M236.264,62.366l-5.834-1.398c-0.267-0.063-0.471-0.211-0.611-0.442c-0.143-0.23-0.182-0.479-0.117-0.744
			c0.062-0.258,0.209-0.461,0.44-0.605c0.231-0.146,0.479-0.187,0.747-0.123l1.959,0.471l1.713-7.146l-1.938-0.463
			c-0.267-0.064-0.469-0.213-0.609-0.448c-0.142-0.233-0.181-0.48-0.119-0.739c0.064-0.266,0.213-0.474,0.445-0.623
			c0.232-0.148,0.481-0.191,0.748-0.128l2.917,0.7c0.266,0.063,0.469,0.215,0.608,0.453s0.178,0.49,0.113,0.756l-1.941,8.103
			l1.914,0.459c0.266,0.063,0.475,0.212,0.623,0.444c0.149,0.232,0.191,0.481,0.129,0.748c-0.064,0.266-0.213,0.469-0.448,0.609
			C236.77,62.389,236.521,62.428,236.264,62.366z M236.193,45.466l1.003,0.241c0.266,0.063,0.468,0.211,0.61,0.441
			c0.141,0.23,0.18,0.479,0.117,0.745l-0.197,0.819c-0.063,0.266-0.211,0.475-0.444,0.623c-0.233,0.15-0.481,0.191-0.747,0.129
			l-1.025-0.246c-0.273-0.065-0.48-0.219-0.619-0.462c-0.139-0.241-0.175-0.483-0.109-0.725l0.225-0.839
			c0.064-0.266,0.211-0.469,0.442-0.611C235.678,45.441,235.928,45.402,236.193,45.466z"/>
		<path d="M249.181,56.912l-3.11,0.776l-2.048,5.95c-0.087,0.251-0.254,0.438-0.503,0.559c-0.247,0.12-0.497,0.138-0.748,0.051
			c-0.251-0.086-0.438-0.253-0.559-0.502c-0.121-0.247-0.139-0.496-0.052-0.748l3.04-8.832c0.088-0.259,0.255-0.451,0.5-0.577
			c0.247-0.126,0.498-0.144,0.758-0.056c0.251,0.087,0.436,0.256,0.557,0.508c0.119,0.252,0.135,0.507,0.046,0.766l-0.214,0.621
			l2.055-0.447c0.693-0.166,1.398-0.125,2.117,0.123l0.865,0.297c0.739,0.255,1.289,0.736,1.648,1.447s0.422,1.455,0.188,2.233
			l-2.174,7.146c-0.079,0.254-0.243,0.441-0.492,0.563c-0.248,0.122-0.501,0.139-0.759,0.049c-0.245-0.084-0.431-0.241-0.558-0.471
			c-0.127-0.229-0.145-0.49-0.053-0.78l2.113-7.043c0.201-0.658-0.026-1.101-0.686-1.327l-0.911-0.313
			C249.921,56.807,249.58,56.809,249.181,56.912z"/>
		<path d="M258.658,74.998l-3.881-1.77c-0.248-0.115-0.421-0.297-0.518-0.547c-0.096-0.25-0.086-0.503,0.031-0.758
			c0.114-0.25,0.297-0.42,0.549-0.511s0.502-0.081,0.75,0.034l3.882,1.77c0.234,0.107,0.495,0.119,0.782,0.036l0.846-0.245
			c0.277-0.063,0.475-0.221,0.592-0.478l1.246-2.729c-1.227,0.462-2.236,0.513-3.031,0.149l-1.375-0.627
			c-0.712-0.326-1.24-0.861-1.584-1.612l-0.4-0.903c-0.135-0.285-0.202-0.643-0.2-1.07c0.003-0.429,0.082-0.814,0.237-1.154
			l1.353-2.964c0.191-0.419,0.453-0.78,0.785-1.085c0.331-0.304,0.649-0.498,0.954-0.582l1.023-0.293
			c0.732-0.215,1.455-0.16,2.166,0.164l1.29,0.588c0.704,0.322,1.229,0.863,1.579,1.623l0.38,0.805l0.139-0.361
			c0.11-0.242,0.295-0.41,0.554-0.508c0.26-0.097,0.508-0.09,0.751,0.021c0.248,0.114,0.423,0.298,0.525,0.556
			c0.102,0.257,0.096,0.51-0.019,0.758l-4.582,10.043c-0.347,0.761-0.95,1.271-1.807,1.533l-1.012,0.297
			c-0.26,0.08-0.586,0.103-0.979,0.07C259.293,75.214,258.949,75.131,258.658,74.998z M263.273,62.176l-1.205-0.551
			c-0.262-0.12-0.561-0.132-0.897-0.036l-0.763,0.206c-0.295,0.08-0.512,0.272-0.651,0.578l-1.362,2.986
			c-0.109,0.241-0.097,0.521,0.041,0.842l0.348,0.791c0.113,0.24,0.272,0.406,0.48,0.501l1.459,0.667
			c0.214,0.097,0.497,0.098,0.851,0.002l1.968-0.559c0.307-0.092,0.524-0.275,0.65-0.553l0.618-1.354
			c0.149-0.328,0.147-0.65-0.008-0.971l-0.892-1.913C263.793,62.527,263.58,62.314,263.273,62.176z"/>
		<path d="M291.613,80.934l-0.506,0.705c-0.159,0.223-0.375,0.358-0.646,0.409c-0.271,0.05-0.518-0.005-0.74-0.165l-6.455-4.632
			c-0.223-0.159-0.354-0.375-0.392-0.649c-0.04-0.273,0.02-0.521,0.179-0.743l0.506-0.704c0.159-0.223,0.373-0.355,0.641-0.398
			c0.266-0.045,0.512,0.013,0.732,0.173l6.457,4.632c0.202,0.146,0.332,0.352,0.391,0.62S291.781,80.699,291.613,80.934z"/>
		<path d="M309.612,90.077l1.94-1.82l6.803,7.243l-1.955,1.838c-0.199,0.186-0.436,0.273-0.71,0.263
			c-0.272-0.011-0.501-0.113-0.683-0.308c-0.188-0.199-0.277-0.438-0.271-0.717s0.105-0.51,0.299-0.691l0.521-0.488l-1.364-1.453
			l-9.183,8.625c-0.198,0.188-0.436,0.275-0.708,0.264c-0.274-0.012-0.501-0.115-0.683-0.308c-0.193-0.204-0.287-0.444-0.28-0.718
			c0.005-0.273,0.108-0.504,0.308-0.69l9.182-8.626l-1.363-1.451l-0.504,0.474c-0.199,0.188-0.435,0.276-0.705,0.268
			c-0.27-0.009-0.499-0.112-0.687-0.312c-0.187-0.199-0.276-0.434-0.268-0.704S309.414,90.265,309.612,90.077z"/>
		<path d="M318.636,109.527l-1.841,1.436l-0.99,2.436l2.193-0.845l4.656-3.366c0.219-0.15,0.465-0.211,0.736-0.18
			c0.271,0.03,0.487,0.147,0.645,0.351c0.169,0.216,0.238,0.458,0.207,0.731c-0.031,0.271-0.156,0.488-0.377,0.65l-4.963,3.602
			l-3.395,1.308c-0.467,0.175-0.843,0.081-1.127-0.283l-0.65-0.834c-0.227-0.29-0.261-0.631-0.104-1.022l0.807-1.984l-2.104,0.279
			c-0.45,0.043-0.777-0.068-0.985-0.333l-0.635-0.815c-0.14-0.18-0.214-0.381-0.221-0.607c-0.01-0.227,0.043-0.414,0.156-0.563
			l2.213-3.031l4.631-3.895c0.198-0.164,0.439-0.229,0.721-0.189c0.283,0.037,0.508,0.163,0.676,0.38
			c0.153,0.196,0.217,0.427,0.189,0.69c-0.027,0.265-0.152,0.488-0.375,0.672l-4.407,3.723l-1.345,1.861l2.67-0.343l1.792-1.397
			c0.214-0.167,0.456-0.232,0.726-0.195c0.271,0.037,0.492,0.167,0.666,0.39c0.162,0.208,0.229,0.449,0.199,0.72
			C318.971,109.142,318.85,109.359,318.636,109.527z"/>
		<path d="M329.492,124.406l-2.011,1.27c-0.226,0.143-0.472,0.184-0.741,0.122c-0.27-0.061-0.476-0.204-0.617-0.429l-3.716-5.886
			l-0.485,0.306c-0.284,0.18-0.447,0.454-0.492,0.824l-0.1,0.742c-0.038,0.394,0.018,0.709,0.168,0.947l2.703,4.28
			c0.141,0.226,0.184,0.471,0.126,0.738s-0.202,0.474-0.433,0.62c-0.225,0.142-0.473,0.181-0.744,0.115
			c-0.272-0.063-0.477-0.205-0.614-0.423l-2.771-4.39c-0.185-0.291-0.316-0.635-0.396-1.032s-0.102-0.714-0.066-0.949l0.186-1.155
			c0.039-0.349,0.174-0.704,0.406-1.068c0.233-0.363,0.487-0.633,0.766-0.809l3.814-2.408c0.219-0.138,0.566-0.239,1.043-0.305
			c0.475-0.064,0.896-0.033,1.265,0.096l0.982,0.35c0.658,0.223,1.161,0.611,1.513,1.165l1.476,2.339
			c0.372,0.588,0.478,1.297,0.319,2.127l-0.201,1C330.751,123.298,330.292,123.902,329.492,124.406z M325.393,117.627l-1.287,0.813
			l3.189,5.055l1.158-0.732c0.312-0.196,0.488-0.441,0.533-0.738l0.119-0.754c0.047-0.381,0.006-0.67-0.118-0.867l-1.319-2.092
			c-0.162-0.258-0.4-0.436-0.712-0.534l-0.714-0.229C325.939,117.434,325.656,117.46,325.393,117.627z"/>
		<path d="M332.605,131.244l1.736,3.449c0.096,0.188,0.191,0.481,0.287,0.88l1.235-0.647c0.243-0.123,0.408-0.313,0.493-0.57
			c0.084-0.258,0.065-0.509-0.058-0.754l-1.685-3.346c-0.121-0.236-0.137-0.488-0.051-0.75c0.086-0.263,0.248-0.454,0.486-0.573
			c0.244-0.122,0.494-0.142,0.752-0.057c0.256,0.085,0.447,0.25,0.57,0.495l1.684,3.343c0.365,0.728,0.424,1.476,0.172,2.245
			c-0.25,0.771-0.74,1.354-1.469,1.746l-6.473,3.535c-0.244,0.123-0.496,0.14-0.755,0.052c-0.259-0.089-0.448-0.251-0.567-0.489
			c-0.127-0.25-0.148-0.506-0.064-0.767c0.082-0.261,0.246-0.452,0.49-0.575l-1.629-1.047l-1.498-2.977
			c-0.373-0.74-0.432-1.499-0.176-2.276c0.256-0.776,0.754-1.353,1.492-1.724l1.026-0.518c0.733-0.369,1.49-0.424,2.272-0.164
			C331.66,130.014,332.236,130.511,332.605,131.244z M331.397,137.365l0.717-0.427c0.247-0.134,0.413-0.326,0.496-0.579
			c0.083-0.251,0.063-0.499-0.061-0.744l-1.746-3.468c-0.123-0.244-0.313-0.409-0.569-0.493c-0.258-0.086-0.508-0.066-0.752,0.057
			l-0.984,0.495c-0.236,0.118-0.399,0.31-0.486,0.573c-0.086,0.262-0.07,0.512,0.051,0.749l1.25,2.483L331.397,137.365z"/>
		<path d="M331.861,143.818l12.666-4.902c0.262-0.102,0.519-0.099,0.771,0.01c0.251,0.108,0.426,0.289,0.524,0.545
			c0.099,0.254,0.092,0.506-0.021,0.755c-0.112,0.249-0.301,0.425-0.563,0.526l-7.499,2.902l6.11,3.314
			c0.257,0.144,0.432,0.34,0.528,0.587c0.102,0.263,0.093,0.518-0.026,0.765c-0.117,0.246-0.305,0.419-0.561,0.519
			c-0.27,0.104-0.521,0.094-0.756-0.031l-4.742-2.593l-2.33,6.355c-0.08,0.25-0.242,0.422-0.49,0.518
			c-0.24,0.094-0.49,0.09-0.752-0.01c-0.26-0.102-0.439-0.278-0.538-0.533c-0.099-0.256-0.103-0.514-0.011-0.775l2.357-6.538
			l-1.184-0.651l-2.775,1.074c-0.255,0.1-0.506,0.094-0.753-0.017c-0.247-0.109-0.42-0.292-0.52-0.546
			c-0.099-0.256-0.093-0.507,0.017-0.754C331.424,144.09,331.605,143.916,331.861,143.818z"/>
		<path d="M337.871,164.699l-1.611-5.779c-0.074-0.264-0.044-0.514,0.089-0.749c0.134-0.235,0.332-0.391,0.595-0.464
			c0.256-0.071,0.504-0.041,0.743,0.091s0.396,0.329,0.47,0.594l0.541,1.94l7.078-1.973l-0.535-1.919
			c-0.073-0.264-0.041-0.515,0.095-0.751c0.137-0.236,0.333-0.391,0.589-0.463c0.264-0.072,0.517-0.044,0.76,0.087
			c0.244,0.131,0.402,0.327,0.476,0.591l0.806,2.891c0.073,0.264,0.039,0.514-0.101,0.752c-0.141,0.238-0.343,0.394-0.605,0.467
			l-8.026,2.237l0.529,1.897c0.073,0.263,0.044,0.516-0.087,0.76c-0.13,0.243-0.328,0.402-0.591,0.475
			c-0.264,0.074-0.514,0.042-0.75-0.095C338.096,165.151,337.942,164.955,337.871,164.699z M352.609,156.43l0.277,0.992
			c0.072,0.265,0.043,0.514-0.09,0.75c-0.133,0.235-0.331,0.39-0.594,0.463l-0.813,0.227c-0.264,0.074-0.517,0.045-0.759-0.086
			c-0.244-0.131-0.402-0.328-0.476-0.592l-0.284-1.016c-0.075-0.271-0.041-0.525,0.104-0.765s0.338-0.388,0.58-0.448l0.843-0.21
			c0.263-0.073,0.513-0.044,0.748,0.09C352.382,155.967,352.536,156.166,352.609,156.43z"/>
		<path d="M348.91,173.366l-2.187-2.345l-6.198,1.094c-0.261,0.046-0.506-0.01-0.731-0.168s-0.362-0.369-0.407-0.631
			c-0.047-0.261,0.008-0.505,0.167-0.73c0.157-0.227,0.368-0.363,0.63-0.409l9.197-1.624c0.27-0.047,0.52,0.006,0.748,0.159
			c0.23,0.154,0.369,0.366,0.416,0.636c0.046,0.261-0.012,0.505-0.174,0.732c-0.162,0.227-0.378,0.364-0.647,0.412l-0.646,0.113
			l1.385,1.58c0.482,0.526,0.789,1.164,0.92,1.911l0.16,0.901c0.135,0.771-0.021,1.485-0.467,2.144
			c-0.447,0.659-1.068,1.075-1.862,1.247l-7.304,1.563c-0.262,0.054-0.505,0.002-0.73-0.157c-0.227-0.158-0.363-0.372-0.411-0.642
			c-0.045-0.254,0.003-0.492,0.142-0.715s0.357-0.365,0.656-0.426l7.186-1.564c0.673-0.144,0.949-0.558,0.827-1.244l-0.167-0.948
			C349.36,173.963,349.193,173.666,348.91,173.366z"/>
		<path d="M337.682,190.414l-0.332-4.252c-0.021-0.273,0.055-0.512,0.227-0.717c0.172-0.207,0.398-0.32,0.678-0.342
			c0.273-0.021,0.511,0.057,0.713,0.232c0.201,0.177,0.313,0.401,0.334,0.674l0.332,4.252c0.021,0.257,0.137,0.49,0.35,0.702
			l0.624,0.621c0.189,0.212,0.424,0.308,0.704,0.285l2.99-0.233c-0.998-0.846-1.531-1.706-1.6-2.578l-0.117-1.508
			c-0.062-0.778,0.152-1.5,0.642-2.165l0.597-0.787c0.184-0.257,0.463-0.489,0.838-0.694c0.377-0.206,0.752-0.323,1.125-0.353
			l3.248-0.253c0.46-0.037,0.902,0.018,1.33,0.159c0.426,0.144,0.749,0.328,0.971,0.554l0.753,0.752
			c0.544,0.537,0.846,1.195,0.906,1.975l0.11,1.413c0.061,0.771-0.158,1.494-0.653,2.167l-0.519,0.723l0.383-0.053
			c0.264-0.021,0.502,0.059,0.713,0.237c0.209,0.179,0.324,0.401,0.346,0.667c0.021,0.272-0.057,0.516-0.232,0.729
			c-0.176,0.214-0.398,0.331-0.672,0.354l-11.006,0.859c-0.833,0.064-1.57-0.215-2.215-0.838l-0.752-0.74
			c-0.195-0.189-0.373-0.463-0.535-0.822C337.801,191.073,337.707,190.734,337.682,190.414z M351.135,188.235l-0.102-1.321
			c-0.023-0.287-0.158-0.555-0.404-0.803l-0.55-0.567c-0.214-0.219-0.487-0.314-0.821-0.288l-3.271,0.256
			c-0.266,0.02-0.504,0.168-0.719,0.443l-0.521,0.688c-0.156,0.215-0.225,0.436-0.207,0.662l0.125,1.6
			c0.018,0.234,0.155,0.482,0.41,0.744l1.441,1.451c0.23,0.225,0.496,0.326,0.801,0.302l1.483-0.116
			c0.358-0.027,0.64-0.187,0.845-0.477l1.24-1.707C351.078,188.858,351.162,188.57,351.135,188.235z"/>
		<path d="M348.498,222.114l-0.861-0.1c-0.271-0.03-0.496-0.152-0.672-0.366c-0.176-0.213-0.248-0.455-0.218-0.727l0.907-7.893
			c0.031-0.271,0.156-0.491,0.377-0.658c0.22-0.168,0.465-0.236,0.736-0.205l0.861,0.1c0.271,0.031,0.492,0.152,0.66,0.365
			c0.17,0.211,0.238,0.453,0.207,0.725l-0.908,7.894c-0.028,0.247-0.146,0.462-0.352,0.644
			C349.031,222.073,348.784,222.148,348.498,222.114z"/>
		<path d="M344.811,245.058l0.48,0.151l3.387-1.065l-11.328-3.589c-0.26-0.083-0.453-0.244-0.578-0.484
			c-0.123-0.241-0.145-0.491-0.063-0.752c0.082-0.26,0.246-0.453,0.49-0.576s0.492-0.145,0.746-0.064l13.908,4.406l-0.77,2.428
			l-4.094,1.239l2.609,3.448l-0.755,2.381l-13.908-4.406c-0.261-0.083-0.452-0.248-0.574-0.496c-0.123-0.247-0.143-0.502-0.06-0.763
			c0.08-0.253,0.242-0.443,0.488-0.57c0.244-0.128,0.494-0.15,0.747-0.071l11.283,3.575l-2.079-2.748l-0.525-0.167
			c-0.253-0.08-0.443-0.242-0.57-0.487s-0.15-0.495-0.07-0.749c0.082-0.26,0.246-0.451,0.489-0.575
			C344.31,244.998,344.559,244.977,344.811,245.058z"/>
		<path d="M335.9,263.627l-3.827-1.634c-0.812-0.347-1.399-1.05-1.764-2.108c-0.362-1.061-0.37-1.996-0.024-2.808l0.906-2.124
			c0.352-0.826,1.04-1.467,2.063-1.922c1.023-0.456,1.93-0.516,2.72-0.178l3.825,1.633c0.791,0.337,1.38,1.023,1.766,2.06
			c0.387,1.035,0.396,1.983,0.028,2.847l-0.907,2.123c-0.332,0.818-1.006,1.462-2.022,1.934
			C337.647,263.92,336.726,263.979,335.9,263.627z M338.943,256.286l-3.666-1.563c-0.33-0.141-0.643-0.135-0.938,0.02l-0.872,0.431
			c-0.193,0.096-0.348,0.28-0.465,0.554l-0.896,2.102c-0.133,0.309-0.141,0.637-0.025,0.983l0.252,0.757
			c0.076,0.296,0.27,0.51,0.578,0.642l3.665,1.563c0.358,0.154,0.673,0.156,0.94,0.007l0.777-0.419
			c0.271-0.14,0.469-0.353,0.592-0.641l0.801-1.875c0.175-0.41,0.212-0.768,0.113-1.072l-0.266-0.84
			C339.441,256.631,339.244,256.415,338.943,256.286z"/>
		<path d="M332.008,275.727l4.082,2.231c0.24,0.132,0.399,0.325,0.478,0.581c0.077,0.257,0.053,0.502-0.074,0.734
			c-0.132,0.24-0.329,0.401-0.592,0.484c-0.265,0.084-0.517,0.06-0.755-0.072l-11.939-6.524c-0.24-0.132-0.396-0.329-0.472-0.592
			c-0.073-0.264-0.047-0.512,0.079-0.744c0.136-0.247,0.332-0.407,0.591-0.479c0.257-0.072,0.507-0.043,0.745,0.088l0.381,0.208
			c-0.368-1.297-0.352-2.312,0.049-3.046l0.803-1.47c0.324-0.591,0.898-1.041,1.729-1.353l1-0.389
			c0.248-0.079,0.598-0.091,1.047-0.035c0.451,0.055,0.838,0.17,1.16,0.346l3.518,1.923c0.391,0.214,0.725,0.503,1,0.868
			c0.277,0.364,0.449,0.707,0.514,1.027l0.219,1.042c0.162,0.747,0.056,1.463-0.319,2.148l-0.681,1.244
			c-0.371,0.679-0.947,1.165-1.73,1.458L332.008,275.727z M332.854,272.932l0.657-1.203c0.139-0.254,0.172-0.534,0.1-0.841
			l-0.18-0.819c-0.066-0.285-0.234-0.502-0.502-0.648l-3.66-2c-0.24-0.131-0.518-0.137-0.833-0.015l-0.793,0.302
			c-0.255,0.092-0.437,0.236-0.546,0.436l-0.77,1.409c-0.102,0.185-0.115,0.462-0.041,0.832l0.384,1.985
			c0.075,0.336,0.261,0.584,0.555,0.744l1.872,1.023c0.418,0.229,0.792,0.277,1.122,0.146l1.974-0.751
			C332.465,273.439,332.686,273.24,332.854,272.932z"/>
		<path d="M324.078,288.117l3.846,2.617c0.227,0.154,0.365,0.361,0.418,0.625c0.053,0.262,0.005,0.504-0.145,0.724
			c-0.154,0.226-0.367,0.368-0.637,0.425c-0.271,0.057-0.518,0.008-0.744-0.146l-11.249-7.655c-0.226-0.153-0.362-0.365-0.411-0.635
			c-0.049-0.269,0.002-0.513,0.152-0.732c0.158-0.232,0.368-0.373,0.633-0.42c0.264-0.047,0.508,0.006,0.734,0.16l0.358,0.244
			c-0.241-1.326-0.126-2.335,0.345-3.027l0.942-1.385c0.378-0.555,0.995-0.948,1.851-1.179l1.033-0.289
			c0.254-0.054,0.603-0.031,1.047,0.067c0.443,0.098,0.816,0.25,1.12,0.457l3.313,2.256c0.367,0.25,0.672,0.57,0.912,0.961
			c0.239,0.39,0.377,0.747,0.41,1.072l0.117,1.059c0.088,0.758-0.088,1.461-0.527,2.107l-0.799,1.172
			c-0.435,0.64-1.057,1.066-1.863,1.282L324.078,288.117z M325.191,285.417l0.771-1.134c0.163-0.238,0.223-0.514,0.181-0.827
			l-0.1-0.833c-0.038-0.291-0.183-0.521-0.435-0.693l-3.449-2.347c-0.227-0.154-0.502-0.187-0.828-0.096l-0.818,0.224
			c-0.262,0.066-0.457,0.193-0.586,0.381l-0.902,1.326c-0.119,0.175-0.158,0.449-0.121,0.825l0.188,2.014
			c0.042,0.341,0.202,0.605,0.479,0.794l1.764,1.201c0.395,0.268,0.762,0.352,1.104,0.254l2.036-0.557
			C324.756,285.885,324.994,285.707,325.191,285.417z"/>
		<path d="M307.346,293.352l3.842-4.608c0.176-0.211,0.397-0.328,0.667-0.353c0.271-0.024,0.509,0.051,0.72,0.227
			c0.203,0.17,0.32,0.391,0.347,0.663c0.028,0.272-0.046,0.513-0.222,0.724l-1.29,1.547l5.644,4.707l1.275-1.531
			c0.176-0.209,0.398-0.326,0.672-0.348c0.271-0.022,0.51,0.053,0.715,0.223c0.21,0.174,0.33,0.4,0.36,0.674
			c0.03,0.274-0.042,0.518-0.218,0.728l-1.92,2.304c-0.176,0.21-0.4,0.324-0.677,0.345c-0.274,0.019-0.519-0.059-0.728-0.233
			l-6.4-5.336l-1.261,1.512c-0.175,0.209-0.399,0.33-0.675,0.361c-0.274,0.029-0.518-0.042-0.727-0.218
			c-0.21-0.175-0.326-0.399-0.348-0.671C307.101,293.794,307.176,293.555,307.346,293.352z M322.521,300.787l-0.66,0.792
			c-0.176,0.21-0.398,0.327-0.667,0.351c-0.271,0.025-0.509-0.05-0.72-0.225l-0.648-0.541c-0.209-0.175-0.329-0.4-0.36-0.675
			c-0.03-0.274,0.042-0.517,0.217-0.726l0.676-0.811c0.18-0.216,0.409-0.333,0.688-0.35c0.277-0.018,0.511,0.057,0.697,0.224
			l0.652,0.573c0.209,0.175,0.327,0.396,0.351,0.667C322.771,300.338,322.697,300.576,322.521,300.787z"/>
		<path d="M306.482,307.357l0.688-3.132l-4.42-4.479c-0.188-0.189-0.279-0.422-0.277-0.698s0.098-0.507,0.286-0.694
			c0.188-0.186,0.423-0.279,0.698-0.276c0.276,0.001,0.508,0.097,0.693,0.286l6.561,6.648c0.191,0.194,0.29,0.43,0.295,0.706
			c0.004,0.276-0.093,0.511-0.287,0.702c-0.189,0.188-0.423,0.277-0.703,0.273c-0.277-0.005-0.514-0.104-0.705-0.299l-0.461-0.467
			l-0.514,2.037c-0.161,0.695-0.51,1.31-1.051,1.843l-0.651,0.644c-0.557,0.549-1.233,0.827-2.029,0.833
			c-0.796,0.007-1.491-0.269-2.083-0.825l-5.436-5.125c-0.191-0.183-0.287-0.412-0.285-0.688s0.1-0.511,0.294-0.702
			c0.185-0.182,0.407-0.278,0.669-0.29c0.263-0.013,0.504,0.087,0.725,0.3l5.369,5.023c0.499,0.473,0.996,0.465,1.492-0.024
			l0.686-0.677C306.248,308.066,306.396,307.76,306.482,307.357z"/>
		<path d="M286.081,307.801l3.31-2.692c0.213-0.173,0.451-0.246,0.719-0.222c0.267,0.025,0.488,0.146,0.666,0.365
			c0.173,0.211,0.244,0.449,0.214,0.717c-0.03,0.266-0.151,0.485-0.363,0.658l-3.31,2.691c-0.2,0.162-0.326,0.391-0.379,0.686
			l-0.156,0.867c-0.067,0.276-0.012,0.523,0.166,0.742l1.893,2.327c0.129-1.304,0.532-2.231,1.211-2.782l1.172-0.955
			c0.606-0.492,1.322-0.727,2.147-0.703l0.987,0.043c0.315,0.005,0.666,0.104,1.048,0.296c0.383,0.192,0.692,0.434,0.929,0.725
			l2.056,2.527c0.291,0.358,0.499,0.753,0.624,1.185s0.156,0.804,0.098,1.113l-0.191,1.047c-0.133,0.753-0.502,1.376-1.108,1.869
			l-1.101,0.895c-0.6,0.487-1.318,0.719-2.153,0.693l-0.89-0.016l0.262,0.285c0.168,0.206,0.237,0.446,0.209,0.722
			c-0.028,0.274-0.146,0.495-0.352,0.663c-0.212,0.173-0.455,0.248-0.73,0.225c-0.275-0.022-0.5-0.141-0.672-0.353l-6.966-8.563
			c-0.527-0.649-0.718-1.416-0.571-2.301l0.183-1.039c0.044-0.268,0.169-0.57,0.372-0.906
			C285.606,308.271,285.832,308.002,286.081,307.801z M295.523,317.627l1.027-0.835c0.225-0.183,0.369-0.446,0.432-0.789
			l0.154-0.774c0.059-0.301-0.018-0.58-0.229-0.841l-2.071-2.546c-0.168-0.205-0.424-0.318-0.773-0.338l-0.861-0.039
			c-0.266-0.005-0.486,0.064-0.662,0.207l-1.246,1.014c-0.183,0.147-0.308,0.4-0.379,0.76l-0.373,2.011
			c-0.055,0.316,0.014,0.593,0.205,0.829l0.939,1.155c0.228,0.278,0.519,0.419,0.873,0.423l2.111,0.051
			C294.979,317.935,295.264,317.84,295.523,317.627z"/>
	</g>
</g>
<g id="Inner_Circle">
	<path fill="none" stroke="#000000" stroke-miterlimit="10" stroke-dasharray="0.5,1" d="M226.284,82.887
		C279.915,94.871,320,142.755,320,200c0,56.17-38.593,103.325-90.708,116.398"/>
	<path fill="none" stroke="#000000" stroke-miterlimit="10" stroke-dasharray="0.5,1" d="M168.201,315.741
		C117.359,301.806,80,255.266,80,200c0-55.736,38-102.599,89.506-116.091"/>
</g>
<g id="Inner_Circle_copy">
	<g>
		<path d="M186.778,76.728l0.152,1.139c-0.881-0.271-1.683-0.359-2.405-0.264c-0.834,0.111-1.48,0.509-1.938,1.192
			c-0.458,0.685-0.623,1.501-0.497,2.448c0.126,0.953,0.533,1.693,1.223,2.223c0.689,0.53,1.506,0.732,2.45,0.606
			c0.214-0.028,0.483-0.09,0.808-0.184l-0.284-2.134l-1.516,0.202l-0.124-0.932l2.756-0.366l0.498,3.75
			c-0.808,0.381-1.589,0.621-2.344,0.722c-1.25,0.165-2.318-0.087-3.204-0.759c-0.885-0.673-1.411-1.63-1.576-2.871
			c-0.168-1.271,0.085-2.354,0.761-3.246c0.676-0.892,1.643-1.421,2.9-1.588C185.153,76.571,185.933,76.593,186.778,76.728z"/>
		<path d="M189.479,84.479l-0.664-10.001l1.248-0.083l0.208,3.123l0.085,1.291c0.511-1,1.26-1.533,2.248-1.599
			c1.305-0.087,2.008,0.645,2.111,2.194l0.313,4.706l-1.248,0.083l-0.29-4.364c-0.035-0.536-0.144-0.912-0.326-1.127
			c-0.182-0.215-0.469-0.31-0.861-0.283c-0.625,0.042-1.25,0.535-1.874,1.479l0.299,4.497L189.479,84.479z"/>
		<path d="M199.8,84.278c-0.978,0-1.757-0.445-2.339-1.338c-0.583-0.894-0.874-2.093-0.875-3.6c0-1.502,0.29-2.698,0.871-3.59
			c0.582-0.891,1.361-1.337,2.339-1.337c0.978-0.001,1.758,0.444,2.34,1.335s0.874,2.087,0.874,3.59c0,1.506-0.29,2.706-0.871,3.599
			C201.557,83.831,200.777,84.277,199.8,84.278z M199.8,83.339c1.253,0,1.878-1.334,1.877-4c-0.001-2.657-0.628-3.986-1.881-3.985
			c-1.252,0.001-1.878,1.33-1.876,3.987C197.92,82.007,198.547,83.339,199.8,83.339z"/>
		<path d="M204.656,83.833l0.073-1.128c0.94,0.481,1.763,0.745,2.468,0.791c0.506,0.034,0.932-0.042,1.277-0.225
			c0.345-0.184,0.527-0.431,0.548-0.743c0.026-0.401-0.348-0.755-1.12-1.06l-1.309-0.524c-1.021-0.406-1.503-1.036-1.447-1.889
			c0.041-0.625,0.309-1.093,0.801-1.404c0.493-0.312,1.171-0.438,2.033-0.382c0.645,0.042,1.389,0.189,2.229,0.444l-0.066,1.014
			c-0.807-0.303-1.551-0.477-2.23-0.521c-0.456-0.03-0.826,0.029-1.109,0.176s-0.434,0.359-0.451,0.638
			c-0.022,0.343,0.27,0.642,0.876,0.897l1.541,0.654c0.562,0.24,0.958,0.509,1.19,0.807c0.233,0.297,0.336,0.669,0.306,1.117
			c-0.042,0.649-0.345,1.15-0.905,1.502c-0.563,0.352-1.295,0.497-2.198,0.438C206.371,84.384,205.537,84.183,204.656,83.833z"/>
		<path d="M217.952,85.427c-0.636,0.027-1.243,0.003-1.822-0.073c-1.011-0.133-1.675-0.405-1.992-0.815
			c-0.317-0.411-0.409-1.123-0.276-2.134l0.435-3.298l-1.706-0.225l0.123-0.932l1.705,0.225l0.194-1.473l1.239,0.164l-0.193,1.473
			l3.033,0.399l-0.123,0.931l-3.033-0.398l-0.46,3.498c-0.052,0.391-0.063,0.662-0.034,0.815s0.116,0.295,0.262,0.425
			c0.261,0.227,0.665,0.375,1.211,0.448c0.518,0.067,1.038,0.077,1.563,0.026L217.952,85.427z"/>
	</g>
</g>
<g id="Inner_Circle_copy_2">
	<g>
		<path d="M214.727,315.074l0.849,8.1l-2.614,0.274c-1.894,0.198-2.906-0.33-3.037-1.584c-0.051-0.479,0.068-0.91,0.358-1.292
			c0.29-0.381,0.72-0.676,1.29-0.885c-1.535-0.15-2.361-0.784-2.479-1.904c-0.066-0.64,0.102-1.164,0.506-1.572
			c0.261-0.27,0.57-0.462,0.929-0.578c0.357-0.116,0.942-0.218,1.755-0.302L214.727,315.074z M213.581,316.14l-1.124,0.117
			c-0.82,0.086-1.377,0.229-1.669,0.431c-0.291,0.2-0.413,0.525-0.366,0.977c0.055,0.521,0.352,0.909,0.891,1.163
			c0.54,0.255,1.244,0.337,2.116,0.245l0.454-0.048L213.581,316.14z M213.964,319.801l-0.435,0.046
			c-1.676,0.175-2.465,0.73-2.366,1.665c0.048,0.458,0.242,0.75,0.583,0.876s0.977,0.142,1.906,0.044l0.581-0.062L213.964,319.801z"
			/>
		<path d="M207.371,313.279l0.036,0.938l-0.508,0.02c-0.474,0.019-0.815,0.108-1.024,0.269c-0.21,0.16-0.424,0.496-0.641,1.009
			l-0.286,0.672l3.147,6.473l-1.296,0.05l-2.448-5.035l-2.072,5.21l-1.123,0.043l3.17-7.903c0.246-0.616,0.554-1.05,0.921-1.304
			c0.368-0.254,0.897-0.394,1.591-0.42L207.371,313.279z"/>
		<path d="M193.807,315.867c0.629-0.094,1.235-0.132,1.819-0.116c1.02,0.028,1.708,0.229,2.067,0.605
			c0.357,0.376,0.523,1.073,0.495,2.094l-0.091,3.325l1.72,0.046l-0.025,0.939l-1.72-0.047l-0.04,1.485l-1.25-0.035l0.04-1.484
			l-3.059-0.083l0.026-0.939l3.058,0.083l0.097-3.527c0.01-0.395-0.007-0.665-0.052-0.814c-0.044-0.149-0.146-0.281-0.304-0.396
			c-0.283-0.197-0.7-0.304-1.251-0.318c-0.521-0.015-1.04,0.03-1.557,0.135L193.807,315.867z"/>
		<path d="M186.267,315.478c0.89-0.206,1.696-0.275,2.417-0.208c1.179,0.109,2.058,0.498,2.636,1.164s0.813,1.563,0.708,2.692
			c-0.1,1.065-0.485,1.913-1.158,2.544c-0.673,0.63-1.479,0.901-2.419,0.813c-0.948-0.089-1.62-0.438-2.016-1.049
			c-0.396-0.61-0.538-1.517-0.426-2.717l0.037-0.398l4.677,0.437c0.052-1.563-0.713-2.419-2.298-2.566
			c-0.67-0.063-1.42,0.028-2.25,0.273L186.267,315.478z M190.598,319.688l-3.312-0.309l-0.017,0.177
			c-0.116,1.238,0.343,1.906,1.375,2.003c0.497,0.046,0.917-0.096,1.26-0.425C190.248,320.805,190.479,320.322,190.598,319.688z"/>
	</g>
</g>
<g id="Layer_5" display="none">
</g>
<g id="GB">
	<g>
		<path d="M187.898,200.216c-5.307,0-10.173-0.936-14.6-2.808c-4.427-1.872-8.211-4.484-11.353-7.837
			c-3.142-3.353-5.583-7.373-7.324-12.061c-1.742-4.688-2.612-9.896-2.612-15.625c0-5.696,0.838-10.896,2.515-15.601
			c1.676-4.704,4.069-8.74,7.178-12.109c3.108-3.369,6.844-5.981,11.206-7.837c4.361-1.855,9.244-2.783,14.648-2.783
			c4.395,0,8.487,0.554,12.28,1.66c3.792,1.107,7.113,2.702,9.96,4.785c2.848,2.083,5.143,4.574,6.885,7.471
			c1.742,2.897,2.775,6.136,3.102,9.717h-10.107c-0.457-4.655-2.549-8.35-6.275-11.084c-3.727-2.734-8.944-4.102-15.649-4.102
			c-3.809,0-7.284,0.659-10.425,1.978c-3.142,1.318-5.835,3.247-8.081,5.786s-3.988,5.656-5.225,9.351
			c-1.237,3.695-1.855,7.951-1.855,12.769c0,4.655,0.61,8.83,1.831,12.524c1.221,3.695,2.946,6.836,5.176,9.424
			c2.229,2.588,4.932,4.565,8.105,5.933s6.681,2.051,10.522,2.051c10.709,0,18.653-3.532,23.829-10.596v-11.23h-19.581v-8.887
			h29.053v37.842h-6.982l-2.49-7.813C206.582,197.189,198.672,200.216,187.898,200.216z"/>
	</g>
	<g>
		<path d="M242.963,227.024c0,7.097-2.319,12.451-6.958,16.064s-11.564,5.42-20.776,5.42h-27.637v-74.072h26.318
			c4.004,0,7.576,0.439,10.718,1.318c3.141,0.879,5.794,2.133,7.959,3.76c2.164,1.628,3.816,3.605,4.956,5.933
			c1.139,2.328,1.709,4.94,1.709,7.837c0,7.162-3.564,12.436-10.693,15.82c2.408,0.619,4.524,1.522,6.348,2.71
			c1.822,1.188,3.328,2.572,4.517,4.15c1.188,1.579,2.075,3.313,2.661,5.2C242.67,223.054,242.963,225.007,242.963,227.024z
			 M197.26,205.345h16.553c5.501,0,9.505-0.846,12.012-2.539c2.506-1.692,3.76-4.59,3.76-8.691c0-1.758-0.277-3.328-0.83-4.712
			c-0.554-1.383-1.474-2.539-2.759-3.467c-1.286-0.928-2.995-1.619-5.127-2.075c-2.133-0.455-4.81-0.684-8.032-0.684H197.26V205.345
			z M197.26,239.622h17.871c11.751,0,17.627-4.199,17.627-12.598c0-2.213-0.326-4.117-0.977-5.713
			c-0.651-1.595-1.709-2.921-3.174-3.979c-1.465-1.058-3.402-1.839-5.811-2.344c-2.409-0.504-5.371-0.757-8.887-0.757h-16.65
			V239.622z"/>
	</g>
</g>
<g id="Layer_10">
	<line fill="none" stroke="#000000" stroke-width="2" stroke-miterlimit="10" x1="180.07" y1="209.912" x2="103.316" y2="209.912"/>
</g>
<g id="Layer_10_copy_2">
	<line fill="none" stroke="#000000" stroke-width="2" stroke-miterlimit="10" x1="147.614" y1="179.21" x2="103.754" y2="179.21"/>
</g>
<g id="Layer_10_copy_3">
	<line fill="none" stroke="#000000" stroke-width="2" stroke-miterlimit="10" x1="293.229" y1="178.333" x2="239.28" y2="178.333"/>
</g>
<g id="Layer_10_copy">
	
		<line fill="none" stroke="#000000" stroke-width="2" stroke-miterlimit="10" x1="295.421" y1="208.596" x2="238.843" y2="208.596"/>
</g>
<g id="Layer_14">
	<g>
		<path d="M116.307,192.277l0.898,1.133l0.518,0.625c1.002,1.237,1.504,2.546,1.504,3.926c0,1.341-0.443,2.517-1.328,3.525
			c-1.211,1.387-2.796,2.08-4.756,2.08c-1.517,0-2.76-0.467-3.73-1.401s-1.455-2.131-1.455-3.589c0-1.784,0.755-3.271,2.266-4.463
			c0.801-0.632,1.54-0.947,2.217-0.947c0.352,0,0.638,0.101,0.859,0.303s0.332,0.462,0.332,0.781c0,0.43-0.254,0.801-0.762,1.113
			l-0.781,0.479c-0.449,0.28-0.824,0.671-1.123,1.172s-0.449,0.996-0.449,1.484c0,0.774,0.262,1.414,0.786,1.919
			s1.19,0.757,1.997,0.757c0.892,0,1.667-0.334,2.324-1.001s0.986-1.453,0.986-2.358c0-0.573-0.133-1.094-0.4-1.563
			s-0.843-1.194-1.729-2.178c-0.619-0.684-1.061-1.282-1.328-1.797h-2.637c-0.898,0-1.348-0.31-1.348-0.928
			c0-0.449,0.158-0.796,0.474-1.04s0.76-0.366,1.333-0.366h1.67c0.13-1.289,0.719-2.355,1.768-3.198s2.305-1.265,3.77-1.265
			c1.1,0,1.997,0.303,2.69,0.908s1.04,1.39,1.04,2.354c0,1.282-0.55,2.266-1.65,2.949c-0.625,0.391-1.618,0.586-2.979,0.586H116.307
			z M115.135,189.943h2.344c1.322,0,1.982-0.384,1.982-1.152c0-0.3-0.135-0.54-0.405-0.723s-0.63-0.273-1.079-0.273
			c-0.703,0-1.343,0.218-1.919,0.654S115.174,189.384,115.135,189.943z"/>
		<path d="M123.807,196.818h1.104c0.82,0,1.23,0.29,1.23,0.869c0,0.397-0.145,0.706-0.435,0.928s-0.695,0.332-1.216,0.332h-1.553
			c-0.573,0-1.024-0.117-1.353-0.352s-0.493-0.554-0.493-0.957c0-0.215,0.068-0.488,0.205-0.82l1.611-3.965l0.107-0.273
			c0.299-0.735,0.781-1.104,1.445-1.104c0.273,0,0.509,0.091,0.708,0.273s0.298,0.4,0.298,0.654c0,0.208-0.088,0.527-0.264,0.957
			L123.807,196.818z M125.096,188.361c0.377,0,0.698,0.132,0.962,0.396s0.396,0.584,0.396,0.962s-0.132,0.698-0.396,0.962
			s-0.584,0.396-0.962,0.396s-0.698-0.132-0.962-0.396s-0.396-0.584-0.396-0.962s0.132-0.698,0.396-0.962
			S124.718,188.361,125.096,188.361z"/>
		<path d="M133.748,196.818h1.172c0.827,0,1.24,0.29,1.24,0.869c0,0.397-0.146,0.706-0.439,0.928s-0.697,0.332-1.211,0.332h-2.041
			c-0.397,0-0.731-0.12-1.001-0.361s-0.405-0.544-0.405-0.908c0-0.222,0.091-0.554,0.273-0.996l0.859-2.129
			c0.091-0.222,0.14-0.4,0.146-0.537c0.006-0.156-0.057-0.29-0.19-0.4s-0.304-0.166-0.513-0.166c-0.67,0-1.211,0.505-1.621,1.514
			l-1.152,2.832c-0.345,0.859-0.859,1.289-1.543,1.289c-0.28,0-0.518-0.085-0.713-0.254s-0.293-0.378-0.293-0.625
			c0-0.183,0.052-0.4,0.156-0.654l0.107-0.264l1.973-4.863c0.254-0.632,0.687-0.947,1.299-0.947c0.501,0,0.859,0.222,1.074,0.664
			c0.697-0.534,1.361-0.801,1.992-0.801c0.612,0,1.117,0.176,1.514,0.527s0.596,0.798,0.596,1.338c0,0.3-0.072,0.628-0.215,0.986
			L133.748,196.818z"/>
		<path d="M142.117,198.947h-2.832c-0.814,0-1.476-0.286-1.987-0.859s-0.767-1.315-0.767-2.227c0-1.218,0.42-2.275,1.26-3.174
			s1.826-1.348,2.959-1.348c0.768,0,1.393,0.215,1.875,0.645s0.723,0.989,0.723,1.68c0,0.481-0.121,0.877-0.361,1.187
			s-0.55,0.464-0.928,0.464c-0.599,0-0.898-0.28-0.898-0.84c0-0.085,0-0.156,0-0.215c0.006-0.071,0.01-0.14,0.01-0.205
			c0-0.456-0.225-0.684-0.674-0.684c-0.423,0-0.809,0.225-1.157,0.674s-0.522,0.95-0.522,1.504c0,0.462,0.142,0.789,0.425,0.981
			s0.763,0.288,1.44,0.288h1.846c0.827,0,1.24,0.29,1.24,0.869c0,0.391-0.148,0.698-0.444,0.923S142.625,198.947,142.117,198.947z"
			/>
		<path d="M146.473,196.086c0,0.488,0.368,0.732,1.104,0.732h2.9c0.82,0,1.23,0.29,1.23,0.869c0,0.397-0.145,0.706-0.435,0.928
			s-0.695,0.332-1.216,0.332h-2.764c-1.029,0-1.812-0.254-2.349-0.762s-0.806-1.25-0.806-2.227c0-1.257,0.425-2.341,1.274-3.252
			s1.86-1.367,3.032-1.367c0.853,0,1.538,0.223,2.056,0.669s0.776,1.033,0.776,1.763c0,0.879-0.358,1.53-1.074,1.953
			c-0.397,0.241-0.99,0.361-1.777,0.361H146.473z M146.941,194.309h1.074c0.697,0,1.035-0.153,1.016-0.459
			c-0.02-0.345-0.244-0.518-0.674-0.518C147.758,193.332,147.287,193.657,146.941,194.309z"/>
		<path d="M255.775,196.799h2.9c0.827,0,1.24,0.293,1.24,0.879c0,0.397-0.146,0.708-0.439,0.933s-0.7,0.337-1.221,0.337h-4.844
			c-0.397,0-0.715-0.101-0.952-0.303s-0.356-0.472-0.356-0.811c0-0.358,0.163-0.703,0.488-1.035l5.469-5.625
			c0.313-0.319,0.469-0.651,0.469-0.996c0-0.319-0.12-0.593-0.361-0.82s-0.53-0.342-0.869-0.342c-0.352,0-0.651,0.117-0.898,0.352
			s-0.371,0.518-0.371,0.85c0,0.254,0.085,0.537,0.254,0.85c0.149,0.273,0.225,0.518,0.225,0.732c0,0.325-0.104,0.593-0.313,0.801
			s-0.479,0.313-0.811,0.313c-0.495,0-0.915-0.239-1.26-0.718s-0.518-1.066-0.518-1.763c0-1.022,0.368-1.88,1.104-2.573
			s1.647-1.04,2.734-1.04c1.042,0,1.895,0.308,2.559,0.923s0.996,1.408,0.996,2.378c0,0.911-0.349,1.722-1.045,2.432
			L255.775,196.799z"/>
		<path d="M267.826,186.809c0.957,0,1.719,0.332,2.285,0.996s0.85,1.556,0.85,2.676c0,1.394-0.291,2.806-0.874,4.238
			s-1.316,2.532-2.202,3.301c-0.866,0.755-1.895,1.133-3.086,1.133c-1.028,0-1.838-0.308-2.427-0.923s-0.884-1.457-0.884-2.524
			c0-1.335,0.306-2.725,0.918-4.17s1.38-2.588,2.305-3.428C265.661,187.241,266.7,186.809,267.826,186.809z M267.582,188.898
			c-0.774,0-1.556,0.7-2.344,2.1c-0.397,0.716-0.726,1.491-0.986,2.324s-0.391,1.536-0.391,2.109c0,0.469,0.109,0.845,0.327,1.128
			s0.506,0.425,0.864,0.425c0.769,0,1.494-0.596,2.178-1.787c0.41-0.71,0.75-1.517,1.021-2.422s0.405-1.689,0.405-2.354
			C268.656,189.406,268.298,188.898,267.582,188.898z"/>
		<path d="M276.361,189.113h-0.674c-0.833,0-1.25-0.296-1.25-0.889c0-0.403,0.146-0.718,0.439-0.942s0.703-0.337,1.23-0.337h1.953
			c0.781,0,1.172,0.315,1.172,0.947c0,0.169-0.052,0.381-0.156,0.635l-3.73,9.199c-0.371,0.905-0.882,1.357-1.533,1.357
			c-0.28,0-0.516-0.091-0.708-0.273s-0.288-0.4-0.288-0.654c0-0.195,0.049-0.42,0.146-0.674l0.107-0.264L276.361,189.113z"/>
		<path d="M283.783,196.799h2.9c0.827,0,1.24,0.293,1.24,0.879c0,0.397-0.146,0.708-0.439,0.933s-0.7,0.337-1.221,0.337h-4.844
			c-0.397,0-0.715-0.101-0.952-0.303s-0.356-0.472-0.356-0.811c0-0.358,0.163-0.703,0.488-1.035l5.469-5.625
			c0.313-0.319,0.469-0.651,0.469-0.996c0-0.319-0.12-0.593-0.361-0.82s-0.53-0.342-0.869-0.342c-0.352,0-0.651,0.117-0.898,0.352
			s-0.371,0.518-0.371,0.85c0,0.254,0.085,0.537,0.254,0.85c0.149,0.273,0.225,0.518,0.225,0.732c0,0.325-0.104,0.593-0.313,0.801
			s-0.479,0.313-0.811,0.313c-0.495,0-0.915-0.239-1.26-0.718s-0.518-1.066-0.518-1.763c0-1.022,0.368-1.88,1.104-2.573
			s1.647-1.04,2.734-1.04c1.042,0,1.895,0.308,2.559,0.923s0.996,1.408,0.996,2.378c0,0.911-0.349,1.722-1.045,2.432
			L283.783,196.799z"/>
	</g>
</g>
<g id="Layer_15">
</g>
</svg>
